<svg xmlns="http://www.w3.org/2000/svg" width="280" height="243" viewBox="0 0 280 243"><g><g opacity=".27"><g opacity=".27"><path fill="#9eb6d2" d="M231.456 110.127c-7.038-2.064-14.076-3.11-20.922-3.11-10.572 0-19.393 2.46-26.233 5.472 6.594-24.582 22.435-67 53.992-71.776 2.923-.443 5.318-2.594 6.115-5.491l6.897-25.12a7.747 7.747 0 0 0-.953-6.242 7.486 7.486 0 0 0-5.246-3.373A51.495 51.495 0 0 0 238.05 0c-37.878 0-75.39 40.26-91.22 97.904-9.292 33.818-12.016 84.662 10.872 116.665 12.808 17.907 31.494 27.47 55.539 28.425.099.003.195.006.293.006 29.669 0 55.977-20.346 63.98-49.473 4.781-17.413 2.62-35.675-6.09-51.433-8.618-15.582-22.81-26.94-39.968-31.966z"/></g><g opacity=".27"><path fill="#9eb6d2" d="M131.422 142.094c-8.617-15.585-22.81-26.942-39.967-31.969-7.038-2.063-14.076-3.11-20.92-3.11-10.572 0-19.396 2.46-26.236 5.472 6.594-24.582 22.436-66.998 53.996-71.775 2.922-.442 5.314-2.594 6.114-5.49l6.898-25.12a7.746 7.746 0 0 0-.954-6.242 7.473 7.473 0 0 0-5.245-3.373A51.429 51.429 0 0 0 98.052 0C60.173 0 22.66 40.258 6.828 97.901c-9.29 33.818-12.014 84.662 10.877 116.67 12.806 17.904 31.495 27.47 55.537 28.422.099.003.195.006.297.006 29.665 0 55.977-20.345 63.98-49.473 4.775-17.412 2.611-35.677-6.097-51.432z"/></g></g></g></svg>